<svg height="512" viewBox="0 0 512 512" width="512" xmlns="http://www.w3.org/2000/svg"><path d="m447.175 144.737a111.271 111.271 0 0 0 -79.183-32.789h-.039a112.14 112.14 0 0 0 -111.953 112 8.112 8.112 0 0 1 -1.754 5.043l-25.816 32.274 23.149 11.574a8 8 0 0 1 4.421 7.161v16h8a32 32 0 0 1 .434 64l5.332 16h55.334l42.9-35.751v-20.249a8 8 0 0 1 16 0v24a7.994 7.994 0 0 1 -2.879 6.144l-45.121 37.597v76.259h104v-80a8.02 8.02 0 0 1 .617-3.078l15.367-36.879a310.7 310.7 0 0 0 24.016-120.095 111.262 111.262 0 0 0 -32.825-79.211zm-127.175 87.263h-32a8 8 0 0 1 -5.656-13.656l24-24a8 8 0 0 1 11.313 11.313l-10.349 10.343h12.692a8 8 0 0 1 0 16z"/><path d="m216 312h-40a16 16 0 0 1 0-32 8 8 0 0 0 0-16 32 32 0 0 0 0 64h40a8 8 0 0 0 0-16z"/><path d="m216 344h-40a32 32 0 0 0 0 64 8 8 0 0 0 0-16 16 16 0 0 1 0-32h40a8 8 0 0 0 0-16z"/><path d="m105.4 344.109a8.015 8.015 0 0 0 -9.265 6.41l-.135 1.781v39.7a8 8 0 0 1 -16 0v-40a24.024 24.024 0 0 1 .234-3.356l6.637-86.266a5.856 5.856 0 0 0 -1.562-4.48 6.132 6.132 0 0 0 -9.739 1.574l-35.575 78.258v52.625l23.352 54.488a7.976 7.976 0 0 1 .653 3.157v16h48v-111.149c0-4.297-2.9-8.137-6.6-8.742z"/><path d="m79.995 111.995h16v16h-16z"/><path d="m79.995 79.995h16v16h-16z"/><path d="m63.995 95.995h16v16h-16z"/><path d="m95.995 95.995h16v16h-16z"/><path d="m239.995 63.995h16v16h-16z"/><path d="m239.995 31.995h16v16h-16z"/><path d="m223.995 47.995h16v16h-16z"/><path d="m255.995 47.995h16v16h-16z"/><path d="m167.995 159.995h16v16h-16z"/><path d="m167.995 111.995h16v16h-16z"/><path d="m143.995 135.995h16v16h-16z"/><path d="m191.995 135.995h16v16h-16z"/></svg>